Coordinates
version=1
nRows=26
nColumns=24
inDegrees=yes

Units are S.I. units (second, meters, Newtons, ...)
Angles are in degrees.

endheader
time	pelvis_tilt	pelvis_list	pelvis_rotation	pelvis_tx	pelvis_ty	pelvis_tz	hip_flexion_r	hip_adduction_r	hip_rotation_r	knee_angle_r	ankle_angle_r	subtalar_angle_r	mtp_angle_r	hip_flexion_l	hip_adduction_l	hip_rotation_l	knee_angle_l	ankle_angle_l	subtalar_angle_l	mtp_angle_l	lumbar_extension	lumbar_bending	lumbar_rotation
      0.85800000	      0.74906614	     -4.94288924	     -5.43543353	     -0.38903162	      1.01341370	      0.31331262	     10.99213093	      9.00660438	      2.04791855	    -18.30783326	     -2.08340289	    -17.79860385	     -3.12606761	     13.60986396	    -11.17213615	     -9.31120822	    -70.61645203	      2.89710306	    -14.36861528	    -17.92777877	    -12.46989159	      6.52233103	      5.89596541
      0.86216667	      0.80207810	     -4.83179473	     -5.49270740	     -0.38396829	      1.01442190	      0.31360415	     10.48334608	      8.87528735	      2.14631905	    -18.04818338	     -1.99834215	    -17.76538974	     -3.13586641	     14.14185616	    -11.08059925	     -9.29347213	    -70.37255572	      3.17797128	    -14.35488897	    -17.96534115	    -12.52968131	      6.34439954	      6.01056348
      0.86633333	      0.81404955	     -4.74537578	     -5.54910948	     -0.37880973	      1.01537528	      0.31390575	      9.99238835	      8.77105325	      2.23527798	    -17.74902526	     -1.89323929	    -17.72014891	     -3.13875803	     14.69633796	    -11.02793905	     -9.28772125	    -70.06118700	      3.36907283	    -14.33881286	    -17.97932468	    -12.51701947	      6.21508241	      6.08692349
      0.87050000	      0.90391085	     -4.61505841	     -5.59241130	     -0.37376180	      1.01643675	      0.31409890	      9.44342346	      8.59376348	      2.27192358	    -17.47535937	     -1.81565731	    -17.57707799	     -3.14833736	     15.15495830	    -10.89787519	     -9.27602682	    -69.67512009	      3.65018976	    -14.19186410	    -18.01947529	    -12.62871149	      6.00664928	      6.30955332
      0.87466667	      1.01850605	     -4.50215188	     -5.65730965	     -0.36864911	      1.01755084	      0.31433741	      8.84277360	      8.43508599	      2.33412022	    -17.16423445	     -1.71257208	    -17.41944284	     -3.16008302	     15.54861245	    -10.79757869	     -9.31429511	    -69.20758530	      3.86113312	    -14.09951097	    -18.07439783	    -12.74934902	      5.82033280	      6.51588297
      0.87883333	      1.17736820	     -4.40060912	     -5.73254847	     -0.36351589	      1.01872573	      0.31461699	      8.18309690	      8.28590020	      2.40744579	    -16.83851712	     -1.56804736	    -17.26995230	     -3.17813942	     15.86545827	    -10.71859353	     -9.39407821	    -68.66926016	      4.01654647	    -14.02869770	    -18.16587363	    -12.92214050	      5.63602161	      6.72208105
      0.88300000	      1.20196781	     -4.29704888	     -5.79174401	     -0.35841035	      1.01962616	      0.31483663	      7.68083559	      8.14152564	      2.44861497	    -16.51902064	     -1.54964753	    -17.17487916	     -3.18525611	     16.33916708	    -10.63720465	     -9.43570172	    -68.11612146	      4.21961403	    -13.91262803	    -18.19936982	    -12.93753779	      5.48170999	      6.81304247
      0.88716667	      1.26962182	     -4.18761395	     -5.86009403	     -0.35326394	      1.02059262	      0.31504418	      7.12998770	      7.97949201	      2.47247255	    -16.20228017	     -1.47795599	    -17.01995976	     -3.19099017	     16.72979772	    -10.54795789	     -9.51199079	    -67.48141353	      4.41445012	    -13.75929828	    -18.23584860	    -12.99441088	      5.30789269	      6.95577600
      0.89133333	      1.48423753	     -4.07537704	     -5.96532214	     -0.34814604	      1.02179849	      0.31534432	      6.40839407	      7.80504473	      2.55751758	    -15.86701097	     -1.31593803	    -16.80915369	     -3.20244181	     16.91176918	    -10.46041091	     -9.67129753	    -66.74993014	      4.54895895	    -13.68664323	    -18.32507613	    -13.23931146	      5.10471194	      7.20079402
      0.89550000	      1.58749243	     -3.96679640	     -6.05372866	     -0.34300898	      1.02277028	      0.31561781	      5.81353616	      7.64285917	      2.60549012	    -15.53617518	     -1.23963358	    -16.67563888	     -3.21191911	     17.21542459	    -10.38472500	     -9.80892148	    -65.99565268	      4.70949823	    -13.55183085	    -18.40086530	    -13.34104695	      4.90416329	      7.35899784
      0.89966667	      1.68610218	     -3.85942939	     -6.15314321	     -0.33787645	      1.02370449	      0.31589448	      5.22629953	      7.47949098	      2.66014671	    -15.20863552	     -1.16526776	    -16.51107545	     -3.21915322	     17.50177434	    -10.31371245	     -9.97057229	    -65.18692077	      4.85138325	    -13.43324669	    -18.47065440	    -13.43962238	      4.71582349	      7.52441668
      0.90383333	      1.81116296	     -3.75418305	     -6.26980143	     -0.33274001	      1.02465212	      0.31619266	      4.61101618	      7.31405072	      2.72597648	    -14.88156242	     -1.08600196	    -16.34358186	     -3.22529804	     17.72911501	    -10.25064752	    -10.17232919	    -64.31604554	      4.97599925	    -13.33040769	    -18.54590021	    -13.56622438	      4.52408750	      7.70440278
      0.90800000	      1.89816991	     -3.65532567	     -6.38827159	     -0.32759724	      1.02550137	      0.31650731	      4.03703970	      7.16035319	      2.79711560	    -14.55460399	     -1.01623471	    -16.18689507	     -3.23056502	     17.98190810	    -10.20059799	    -10.38039000	    -63.40332440	      5.08857150	    -13.23333400	    -18.62156564	    -13.65492952	      4.34404640	      7.88602335
      0.91216667	      2.02095300	     -3.56218376	     -6.51471401	     -0.32247503	      1.02636292	      0.31682654	      3.42667804	      7.00628142	      2.87510104	    -14.22875562	     -0.94288872	    -16.02733768	     -3.23466002	     18.17137539	    -10.15857009	    -10.61896141	    -62.43601966	      5.18811520	    -13.14671614	    -18.69996663	    -13.78451666	      4.16373546	      8.06704155
      0.91633333	      2.10845126	     -3.47049760	     -6.64249607	     -0.31733142	      1.02713213	      0.31714657	      2.85731732	      6.85575032	      2.94358882	    -13.90926515	     -0.86913415	    -15.87793208	     -3.23797329	     18.38068170	    -10.12318704	    -10.87040551	    -61.42549248	      5.27772582	    -13.07002266	    -18.77479228	    -13.86790751	      3.98151605	      8.24405065
      0.92050000	      2.20968267	     -3.38953207	     -6.78441303	     -0.31220074	      1.02788128	      0.31749450	      2.27421883	      6.71438595	      3.02564163	    -13.59053620	     -0.79817507	    -15.72805964	     -3.24120288	     18.55001285	    -10.10643758	    -11.15501544	    -60.36620611	      5.34616753	    -13.01692540	    -18.85820614	    -13.97112260	      3.80795056	      8.43669094
      0.92466667	      2.28162566	     -3.31478719	     -6.91359749	     -0.30705544	      1.02852662	      0.31781750	      1.72642411	      6.58137665	      3.08795112	    -13.27998438	     -0.72479242	    -15.59788815	     -3.24415378	     18.73862048	    -10.09588370	    -11.43751770	    -59.27176221	      5.42123181	    -12.96250932	    -18.93008542	    -14.03070086	      3.63942238	      8.59947520
      0.92883333	      2.39734542	     -3.24974685	     -7.05676486	     -0.30195374	      1.02920628	      0.31814151	      1.13030374	      6.45098190	      3.18640128	    -12.96174741	     -0.65683657	    -15.46074412	     -3.24699769	     18.85323276	    -10.09112162	    -11.74538048	    -58.12162391	      5.47003827	    -12.93308195	    -19.01256581	    -14.16247771	      3.48926785	      8.78735364
      0.93300000	      2.45703648	     -3.18958915	     -7.19569329	     -0.29681715	      1.02974352	      0.31846134	      0.60134562	      6.33092791	      3.25496907	    -12.66092579	     -0.58290786	    -15.34180801	     -3.24916629	     19.01357816	    -10.09935756	    -12.06474336	    -56.94051653	      5.51127941	    -12.92511741	    -19.09158548	    -14.21310858	      3.33977577	      8.95218405
      0.93716667	      2.52340909	     -3.14592266	     -7.33592778	     -0.29170939	      1.03024279	      0.31877747	      0.06379086	      6.22727004	      3.34642779	    -12.35547781	     -0.51383450	    -15.22429923	     -3.25137134	     19.14792349	    -10.12337079	    -12.39112197	    -55.71885526	      5.54660360	    -12.92143030	    -19.17673742	    -14.28610004	      3.21612339	      9.12395726
      0.94133333	      2.59461485	     -3.11494887	     -7.46982842	     -0.28661254	      1.03069632	      0.31906503	     -0.47719866	      6.13389078	      3.42870289	    -12.05281747	     -0.45091702	    -15.11741406	     -3.25373819	     19.26098127	    -10.15643809	    -12.72646782	    -54.45984762	      5.57092800	    -12.92977153	    -19.26554791	    -14.36510110	      3.10731927	      9.28588481
      0.94550000	      2.62449127	     -3.09065684	     -7.60352268	     -0.28150331	      1.03103690	      0.31934188	     -0.96921847	      6.05128976	      3.50430134	    -11.76097723	     -0.37981707	    -15.01857740	     -3.25520293	     19.40167205	    -10.19980126	    -13.07150857	    -53.16674704	      5.58819399	    -12.95824118	    -19.35595149	    -14.39444086	      3.00932843	      9.43880424
      0.94966667	      2.64601886	     -3.07609536	     -7.73094138	     -0.27639770	      1.03131128	      0.31960102	     -1.44979925	      5.97844839	      3.56575435	    -11.47404350	     -0.31238712	    -14.92528636	     -3.25541598	     19.53421003	    -10.25015999	    -13.42260550	    -51.83674743	      5.60360887	    -12.99000308	    -19.44537334	    -14.41132954	      2.92226036	      9.58007059
      0.95383333	      2.67856623	     -3.07897195	     -7.85113385	     -0.27131733	      1.03154554	      0.31982453	     -1.94325773	      5.92042080	      3.63879961	    -11.18626695	     -0.24828918	    -14.83464301	     -3.25525716	     19.64006545	    -10.31091229	    -13.77426412	    -50.47273758	      5.61632771	    -13.01956823	    -19.53847120	    -14.45252207	      2.86209322	      9.72020769
      0.95800000	      2.69207526	     -3.09083271	     -7.97167704	     -0.26623726	      1.03170727	      0.32004008	     -2.41313775	      5.87308089	      3.70943656	    -10.90588600	     -0.18150226	    -14.74580929	     -3.25417563	     19.74722132	    -10.38118686	    -14.14028376	    -49.07121848	      5.61850045	    -13.05820918	    -19.63687403	    -14.46907077	      2.81458503	      9.85659678
      0.96216667	      2.65470717	     -3.11512938	     -8.07422599	     -0.26113439	      1.03172584	      0.32020533	     -2.82776088	      5.84305137	      3.74209450	    -10.62885102	     -0.12874820	    -14.65935489	     -3.25195270	     19.90210290	    -10.46298981	    -14.50079915	    -47.65255944	      5.62701564	    -13.08812975	    -19.72326249	    -14.43608977	      2.79579415	      9.96547200
